<svg xmlns="http://www.w3.org/2000/svg" width="584" height="674" viewBox="0 0 584 674" fill="none"><path d="M2 100.621C4 95.2875 8.33333 92.6208 15 92.6208H71C73.6667 92.6208 76 91.6208 78 89.6208C110.12 56.5019 149.561 31.3784 193.153 16.2688C236.745 1.15917 283.273 -3.51534 329 2.62083H320L305 3.62083L304 7.62083L307 6.62083C311 3.28749 314 3.28749 316 6.62083C318 12.6208 322 15.6208 328 15.6208L361 21.6208L364 20.6208C368 17.9542 372 17.6208 376 19.6208C377.333 20.2875 378.667 22.9542 380 27.6208L382 29.6208L366 24.6208C344 19.2875 321.667 16.2875 299 15.6208H292C262.667 14.9542 234 19.2875 206 28.6208L173 41.6208L162 46.6208C145.333 55.9542 130 65.9542 116 76.6208L75 115.621C61.6667 130.954 50.6667 147.621 42 165.621L24 208.621L23 213.621H96L100 211.621L107 196.621L108 194.621L109 192.621H110L111 197.621L115 196.621L119 191.621C121.667 189.621 124.333 189.287 127 190.621L123 198.621L122 202.621L120 206.621L119 208.621L117 215.621L123 213.621L128 214.621L136 216.621L143 220.621L142 224.621L138 221.621C128.667 221.621 124 224.954 124 231.621L129 280.621L133 318.621L135 337.621L136 345.621V369.621L138 398.621C137 392.621 133 393.621 130 391.621L127 397.621L124 354.621L134 351.621V345.621L124 347.621L123 344.621V339.621L122 332.621V331.621L121 325.621V316.621L122 313.621C128 308.954 130.333 302.954 129 295.621L127 285.621C127.667 278.287 124.333 274.954 117 275.621V273.621L116 270.621L112 241.621L111 225.621L102 228.621L78 227.621C75.3333 227.621 74 228.954 74 231.621V476.621C72.6667 478.621 72.3333 480.287 73 481.621C77 487.621 76 496.621 85 498.621V499.621L69 492.621C64.3333 489.954 61.3333 486.287 60 481.621L61 480.621L64 485.621H66C68 482.954 68.6667 480.621 68 478.621L61 473.621V233.621L59 227.621H57L22 228.621H19L17 234.621V514.621C16.3333 518.621 18 521.954 22 524.621L27 526.621V527.621L35 530.621V531.621L58 541.621V542.621H60V543.621L68 546.621V547.621L80 552.621C94.6667 560.621 109.333 567.621 124 573.621V574.621H126V575.621L132 577.621V578.621H134V579.621L153 587.621V588.621L179 600.621L182 601.621V602.621H184V603.621H186V604.621L190 605.621V606.621H192V607.621H194V608.621H196V609.621H198V610.621L204 612.621V613.621L212 616.621L215 617.621V618.621H217V619.621H219V620.621H221V621.621L241 630.621L243 631.621L244 632.621H246V633.621H248V634.621L270 644.621L275 646.621V647.621L281 649.621L282 650.621H283L286 651.621V652.621H288V653.621L297 655.621L289 664.621L288 669.621L292 671.621L303 670.621L302 672.621C296 673.954 290 673.288 284 670.621L11 538.621C6.33333 536.621 3 532.954 1 527.621L2 521.621V107.621V100.621ZM47 127.621L49 125.621L61 108.621H25C19.6667 108.621 17 111.287 17 116.621V184.621L34 149.621V147.621H35V146.621H36L46 128.621L47 127.621Z" fill="#093047"></path><path d="M383 29.6208L380 27.6208C378.667 22.9542 377.333 20.2875 376 19.6208C372 17.6208 368 17.9542 364 20.6208L361 21.6208L328 15.6208C322 15.6208 318 12.6208 316 6.62085C314 3.28752 311 3.28752 307 6.62085L304 7.62085L305 3.62085L320 2.62085H331L343 4.62085C369 8.62085 394 16.2875 418 27.6208C449.333 42.9542 477.667 62.6208 503 86.6208C505 90.6208 508.333 92.9542 513 93.6208L518 94.6208H566C564 99.2875 561 101.288 557 100.621C550.333 99.2875 544.667 101.288 540 106.621L530 102.621C526.667 101.954 524 102.954 522 105.621C520.667 106.954 521 108.621 523 110.621L524 111.621L526 114.621L529 118.621L526 123.621V129.621L531 128.621L535 126.621L536 128.621L537 130.621L540 134.621L542 136.621L543 139.621L540 141.621C535.333 138.954 532.333 140.621 531 146.621L510 119.621L508 115.621L506 113.621L479 86.6208L478 85.6208L477 84.6208L476 83.6208L475 82.6208L473 81.6208L472 80.6208L431 51.6208L407 40.6208L402 36.6208L399 35.6208L392 32.6208L388 31.6208L383 29.6208Z" fill="#09334A"></path><path d="M583 528.621C576 539.621 563 541.621 552 547.621C552 543.621 553.667 540.954 557 539.621C563.667 537.621 568 533.288 570 526.621L574 524.621C579.333 524.621 582 521.954 582 516.621V217.621L575 218.621L569 216.621C567.667 212.621 564.667 211.288 560 212.621L549 180.621C553.667 178.621 557 174.954 559 169.621L566 184.621L567 183.621V111.621L569 117.621V180.621C569 185.954 570.667 187.288 574 184.621C579.333 182.621 582 178.621 582 172.621V115.621L580 97.6208C582 100.288 583.333 103.288 584 106.621V516.621L583 528.621Z" fill="#093047"></path><path d="M580 96.6208L582 115.621V172.621C582 178.621 579.333 182.621 574 184.621C570.667 187.288 569 185.954 569 180.621V117.621L567 111.621L570 105.621C573.333 104.288 575 101.954 575 98.6208L578 95.6208L580 96.6208Z" fill="#09334A"></path><path d="M1 101.621L2 107.621H0L1 101.621Z" fill="#324D5F"></path><path d="M578 95.6208L575 98.6208C575 101.954 573.333 104.288 570 105.621L567 111.621L560 108.621H526L523 110.621C521 109.288 520.667 107.621 522 105.621C524 102.954 526.667 101.954 530 102.621L540 106.621C544.667 101.288 550.333 99.2875 557 100.621C561 101.288 564 99.2875 566 94.6208H518L513 93.6208L570 92.6208L578 95.6208Z" fill="#093047"></path><path d="M60 481.621C61.3333 486.288 64.3333 489.954 69 492.621L85 499.621H86L107 509.621L109 510.621L111 511.621L113 512.621L116 513.621V514.621L151 530.621L153 531.621L156 532.621V533.621H158V534.621L173 540.621V541.621H175V542.621L221 563.621L255 579.621C264.333 584.954 273.333 589.288 282 592.621C287.333 595.288 292.333 595.621 297 593.621L328 578.621L330 577.621L362 562.621L378 555.621L471 511.621L477 510.621C479 512.621 480.333 514.954 481 517.621C481 523.621 483.333 527.954 488 530.621L487 532.621L466 541.621L440 554.621L305 618.621C294.333 623.288 284 622.954 274 617.621L197 581.621L105 537.621L63 517.621L38 504.621L35 496.621L36 240.621H58V474.621L60 481.621Z" fill="#FCCB4E"></path><path d="M560 212.621C564.667 211.288 567.667 212.621 569 216.621L575 218.621L582 217.621V516.621C582 521.954 579.333 524.621 574 524.621L570 526.621C568 533.288 563.667 537.621 557 539.621C553 540.954 551.333 543.621 552 547.621L483 581.621L378 633.621L333 655.621L327 652.621L326 653.621L328 657.621L303 670.621L292 671.621L288 669.621L289 664.621L297 655.621H298C303.333 655.621 307 653.621 309 649.621L311 648.621L313 647.621L315 646.621L332 638.621L334 637.621L338 635.621L340 634.621L342 633.621L344 632.621L346 631.621C350 632.288 352.667 630.954 354 627.621L356 626.621L358 625.621L360 624.621C364.667 625.954 369 624.954 373 621.621L381 616.621C384.333 615.954 386.333 614.288 387 611.621L389 610.621L391 609.621L393 608.621C397 609.288 399.667 607.954 401 604.621L403 603.621L405 602.621L407 601.621L409 600.621C413.667 601.288 417 600.954 419 599.621C423 595.621 427.667 592.621 433 590.621L435 587.621L437 586.621L439 585.621L441 584.621L443 583.621L451 579.621L455 577.621L457 576.621L459 575.621L461 574.621H462L466 572.621L468 571.621L470 570.621L472 569.621L474 568.621L476 567.621C480 568.288 482.667 566.954 484 563.621L494 560.621C497.333 561.288 499.333 559.621 500 555.621L504 553.621L510 550.621H511L512 549.621H513L515 548.621L517 547.621L519 546.621L523 544.621C527 545.288 529.667 543.954 531 540.621L533 539.621L535 538.621L537 537.621L539 536.621L541 535.621L552 530.621L553 529.621H554L556 528.621L558 527.621L560 526.621L562 525.621L564 524.621L565 523.621L566 521.621L567 520.621L569 513.621V232.621L567 227.621H522V407.621L521 481.621L516 474.621C515.333 469.288 512.333 466.954 507 467.621V232.621C507 229.954 505.667 228.621 503 228.621L481 227.621C477 226.954 473.667 225.288 471 222.621L467 213.621L463 205.621L467 201.621L472 189.621V190.621L473 191.621L477 200.621L470 204.621C466.667 207.288 467 209.954 471 212.621C475 214.621 479.667 214.954 485 213.621L524 212.621H560ZM535 226.621L539 224.621L536 217.621H529C525.667 218.954 523.667 221.954 523 226.621H535ZM501 567.621C504.333 569.621 506 568.288 506 563.621L501 567.621ZM558 224.621H553V225.621C555 225.621 557 228.621 558 224.621Z" fill="#042D46"></path><path d="M38 504.621L63 517.621L105 537.621L197 581.621L274 617.621C284 622.954 294.333 623.288 305 618.621L440 554.621V557.621L439 561.621L444 562.621L451 563.621C454.333 564.954 457 564.288 459 561.621C461.667 556.954 466 555.621 472 557.621H475C479.667 554.954 483 555.954 485 560.621V561.621L465 570.621L459 574.621L455 576.621L452 577.621L448 579.621L446 580.621L444 581.621L439 584.621L432 587.621L430 588.621L428 589.621L426 590.621L424 591.621L422 592.621L420 593.621L412 597.621L396 605.621L394 606.621L376 615.621L374 616.621L372 617.621H371L370 618.621H369L367 619.621L365 620.621L363 621.621L361 622.621L331 636.621L329 638.621H328L326 639.621L325 640.621H324L322 641.621L320 642.621L318 643.621L316 644.621L309 648.621L306 649.621L304 650.621L300 652.621L298 653.621C298 654.288 298 654.288 298 653.621L288 652.621L286 651.621L283 650.621L281 649.621L275 646.621L270 644.621C266.667 641.954 263 639.954 259 638.621L248 633.621L246 632.621L243 631.621L241 630.621L221 620.621L219 619.621L217 618.621L215 617.621L212 616.621L204 612.621L198 609.621L196 608.621L194 607.621L192 606.621L190 605.621L186 603.621L184 602.621L182 601.621L179 600.621L155 587.621H153L134 578.621L132 577.621L126 574.621L124 573.621L92 557.621L80 552.621L68 546.621L60 542.621L58 541.621L43 533.621L35 530.621L27 526.621L25 524.621L30 517.621V518.621L35 517.621C35 513.621 41 510.621 37 505.621L38 504.621Z" fill="#FDB51C"></path><path d="M138 221.621L142 224.621L147 233.621L167 273.621C169 277.621 172.333 279.621 177 279.621L187 278.621L191 277.621H194V278.621L185 282.621C196.333 285.954 206.667 284.288 216 277.621L222 270.621L230 249.621L246 207.621C246.667 205.621 248 204.288 250 203.621L266 202.621L287 199.621H289V312.621C267 312.621 245.667 313.954 225 316.621L173 325.621L136 334.621C136.667 317.954 135.333 301.621 132 285.621L130 263.621C133 271.621 132 280.621 137 288.621L138 283.621L136 225.621L138 221.621ZM154 323.621C162 322.621 176 304.621 174 296.621C173.333 292.621 171.333 291.288 168 292.621L153 297.621C145 300.621 144 301.621 146 310.621L147 317.621L154 323.621Z" fill="#FDDD29"></path><path d="M116 273.621L117 275.621L120 316.621L121 324.621V325.621L122 332.621L123 339.621V344.621L124 347.621V358.621L127 397.621L129 408.621L130 423.621L131 434.621L134 464.621C134.667 473.288 138 480.288 144 485.621L148 492.621C154 497.954 160.667 501.288 168 502.621L163 505.621C153.667 505.621 145.667 502.954 139 497.621C137 496.288 135 495.954 133 496.621L123 501.621L90 485.621L87 473.621L86 433.621L87 409.621L86 384.621V246.621L107 245.621L110 264.621C110 267.954 112 269.954 116 270.621V273.621Z" fill="#68C1F3"></path><path d="M122 202.621L123 198.621L127 190.621C124.333 189.288 121.667 189.621 119 191.621L115 196.621L111 197.621L110 192.621H111L110 191.621V190.621L118 179.621L131 161.621L133 159.621L135 156.621L148 143.621C163.783 129.802 181.256 118.041 200 108.621L201 107.621L203 106.621L208 104.621L252 91.6208H254L257 90.6208H260L263 89.6208L271 88.6208H292L293 87.6208H296L304 88.6208C320 88.6208 335.333 91.2875 350 96.6208C352.667 97.2875 355 96.6208 357 94.6208L363 90.6208C363 94.6208 364.667 96.6208 368 96.6208L292 156.621L303 161.621L319 169.621L317 170.621L318 183.621L308 188.621C298 191.621 290 186.621 280 186.621L279 183.621H306L311 181.621L313 177.621L294 169.621L271 160.621L310 130.621L321 121.621L336 110.621L329 108.621C309 105.288 288.333 104.621 267 106.621C216.333 113.954 174.333 137.621 141 177.621L122 202.621Z" fill="#09334A"></path><path d="M130 161.621L118 179.621L110 190.621L109 192.621L108 194.621L107 195.621L99 196.621C91 204.621 81 204.621 72 205.621H27L42 177.621C52 159.621 63.6667 143.621 77 129.621C79.6667 126.288 82.6667 125.954 86 128.621L107 146.621L130 161.621Z" fill="#D63E4D"></path><path d="M186 278.621L177 279.621C172.333 279.621 169 277.621 167 273.621L147 233.621L142 224.621L143 220.621L136 216.621L128 214.621L123 213.621L131 209.621L144 208.621C148.667 210.621 152 213.954 154 218.621L158 226.621L176 259.621L181 263.621C187.667 264.954 192 262.621 194 256.621L200 242.621L217 198.621C229 196.621 234.333 191.288 233 182.621L254 183.621C256 188.954 259.333 191.954 264 192.621H310L316 189.621L328 181.621L330 182.621L326 192.621H339L343 194.621H289L239 193.621C235.667 193.621 233.667 194.954 233 197.621L211 255.621C207.667 266.288 201 273.621 191 277.621L186 278.621Z" fill="#09334A"></path><path d="M86 246.621V384.621L87 409.621L86 433.621L87 473.621L90 485.621L74 475.621L75 245.621L86 246.621Z" fill="#3E94DB"></path><path d="M131 210.621L117 215.621L119 208.621L120 206.621L122 202.621L141 177.621C163.098 150.109 192.281 129.146 225.408 116.987C258.535 104.829 294.351 101.936 329 108.621L336 110.621L321 121.621L317 118.621L293 116.621L259 120.621C237.667 123.954 217.667 131.621 199 143.621C178.333 154.954 160.667 169.621 146 187.621L131 210.621Z" fill="#2E7CCE"></path><path d="M74 476.621L90 485.621L123 501.621L161 519.621L164 521.621L186 531.621L226 550.621L227 555.621C227 559.621 225 562.288 221 563.621L216 560.621L209 555.621L200 540.621L198 541.621C194 546.954 189 547.954 183 544.621L175 541.621L173 540.621L171 534.621C171 531.288 169.333 530.288 166 531.621L158 533.621L156 532.621L153 531.621L151 530.621L131 517.621L120 514.621L116 513.621L113 512.621L111 511.621L109 510.621L107 509.621L86 499.621L85 498.621C76 496.621 77 487.621 73 481.621C72.3333 480.288 72.6667 478.621 74 476.621Z" fill="#09334C"></path><path d="M388 31.6208L391 32.6208V33.6208L398 35.6208L401 37.6208L406 40.6208L399 52.6208L387 48.6208L361 40.6208C340.333 34.6208 319.333 31.9542 298 32.6208L294 17.6208L299 15.6208C321 16.2875 343 19.2875 365 24.6208L381 29.6208H382L388 31.6208Z" fill="#C6ED68"></path><path d="M136 334.621L173 325.621L225 316.621C246.17 313.37 267.59 312.032 289 312.621V322.621L238 325.621C212.98 327.005 188.176 331.028 164 337.621L139 345.621H136L135 336.621L136 334.621Z" fill="#FEB618"></path><path d="M33 149.621L17 184.621V116.621C16.3333 111.288 19 108.621 25 108.621H61L47 127.621L46 128.621C38 128.621 34.3333 132.288 35 139.621V146.621L34 147.621L33 149.621Z" fill="#F7B723"></path><path d="M75 115.621L116 76.6208C130.667 65.9542 146 55.9542 162 46.6208L165 51.6208V61.6208L157 63.6208L156 64.6208L143 71.6208L133 78.6208C115 91.2875 98.6667 105.288 84 120.621L75 115.621Z" fill="#F7C37A"></path><path d="M75 115.621L85 120.621L95 129.621L133 159.621L131 161.621L107 146.621L86 128.621C82.6667 125.954 79.6667 126.288 77 129.621C63 143.621 51.3333 159.621 42 177.621L27 205.621L24 208.621L42 165.621C50.6667 147.621 61.6667 130.954 75 115.621Z" fill="#E46F7F"></path><path d="M24 208.621L27 205.621L33 206.621L72 205.621C81 204.621 91 204.621 99 196.621H107L100 211.621L96 213.621H23L24 208.621Z" fill="#B93548"></path><path d="M136 334.621L135 336.621L133 318.621L129 280.621L124 231.621C124 224.954 128.667 221.621 138 221.621L136 225.621L138 283.621L137 288.621C132 280.621 133 271.621 130 263.621L132 285.621C135.333 301.621 136.667 317.954 136 334.621Z" fill="#F7ED7D"></path><path d="M86 246.621L75 245.621L74 231.621C74 228.954 75.3333 227.621 78 227.621L102 228.621L111 225.621L112 241.621C111.333 244.288 109.667 245.621 107 245.621L86 246.621Z" fill="#2E7CCE"></path><path d="M136 345.621L137 348.621L138 364.621L146 439.621L150 459.621V462.621L145 469.621L144 460.621L143 457.621L142 451.621L141 432.621L140 431.621V429.621L139 410.621L137 399.621V398.621L135 369.621L136 345.621ZM299 15.6208L295 17.6208L299 32.6208L298 59.6208L297 77.6208L296 85.6208V87.6208H292V15.6208H299Z" fill="#F7ED7D"></path><path d="M121 316.621L117 276.621C124.333 275.288 127.667 278.288 127 285.621L129 295.621C130.333 302.954 128 308.954 122 313.621L121 316.621Z" fill="#09334C"></path><path d="M58 240.621H35V235.621C36.3333 230.954 34.3333 228.954 29 229.621L22 228.621L58 227.621H59L60 228.621L59 239.621L58 240.621ZM22 524.621C18 522.621 16.3333 519.288 17 514.621V406.621L18 240.621V508.621C18 514.621 19.3333 519.954 22 524.621Z" fill="#D7AD41"></path><path d="M292 15.6209V23.6209H290C290.667 17.6209 288.667 15.2875 284 16.6209L260 18.6209C234 21.2875 209 27.6209 185 37.6209L177 41.6209C181 45.6209 182 50.2875 180 55.6209L177 53.6209L173 41.6209L206 28.6209C233.333 19.2875 262 14.9542 292 15.6209Z" fill="#C6ED68"></path><path d="M59 239.621V228.621L61 233.621V480.621H60V274.621L59 239.621Z" fill="#042D46"></path><path d="M173 41.6208L177 54.6208L176 55.6208L175 67.6208L165 61.6208V51.6208L162 46.6208L173 41.6208Z" fill="#F7ED7D"></path><path d="M18 240.621L19 228.621H22L29 229.621C33.6667 228.954 35.6667 230.954 35 235.621V239.621L18 240.621Z" fill="#FEA815"></path><path d="M107 245.621C109.667 245.621 111.333 244.288 112 241.621L116 270.621C112 269.954 110 267.954 110 264.621L107 245.621Z" fill="#4AA5E5"></path><path d="M138 398.621V399.621C138.667 406.288 135.667 409.288 129 408.621L128 398.621L130 391.621C133 393.621 137 392.621 138 398.621Z" fill="#09334C"></path><path d="M35 146.621V139.621C34.3333 132.288 38 128.621 46 128.621L35 146.621Z" fill="#FECD51"></path><path d="M124 354.621V348.621L134 345.621V351.621L124 354.621ZM61 480.621V473.621L68 478.621C68 481.288 67.3333 483.621 66 485.621H64L61 480.621Z" fill="#09334C"></path><path d="M35 531.621L43 533.621L58 541.621L35 531.621ZM248 634.621L259 638.621C263 639.954 266.667 641.954 270 644.621L248 634.621ZM288 653.621L298 654.621L297 655.621L288 653.621ZM25 524.621L27 526.621L22 524.621H25Z" fill="#D7AD41"></path><path d="M109 192.621L110 190.621V192.621H109Z" fill="#B93548"></path><path d="M559 213.621L524 212.621C524 208.621 522.333 206.621 519 206.621L511 205.621H481L472 190.621V189.621L467 182.621L458 168.621L486 145.621L505 126.621L506 121.621L510 119.621L531 146.621L542 165.621L549 180.621L560 212.621L559 213.621Z" fill="#19A8C3"></path><path d="M400 52.6208L407 40.6208L431 51.6208L472 80.6208L465 79.6208H462L455 84.6208L430 68.6208C424 64.6208 418 60.6208 410 65.6208L415 52.6208L414 51.6208L394 65.6208L400 52.6208Z" fill="#6ECE63"></path><path d="M455 84.6208L462 79.6208H465L472 80.6208L473 81.6208L475 82.6208L476 83.6208L477 84.6208L478 85.6208L479 86.6208L506 113.621L496 120.621L480 106.621L455 84.6208Z" fill="#5ECA5A"></path><path d="M542 165.621L531 146.621C531.667 141.288 534.667 139.621 540 141.621L543 139.621L548 145.621L549 146.621L550 148.621L551 150.621V152.621C547.667 152.621 547 153.954 549 156.621L553 165.621H542Z" fill="#093047"></path><path d="M510 119.621L506 121.621L498 126.621L461 154.621V151.621L462 150.621L497 122.621C501.667 122.621 505.333 120.288 508 115.621L510 119.621Z" fill="#4AA5E5"></path><path d="M548 145.621L544 139.621L542 136.621L540 134.621L537 130.621V129.621L536 128.621V126.621L540 128.621C545.333 129.288 548 132.621 548 138.621V145.621Z" fill="#FECD51"></path><path d="M535 126.621L531 128.621L526 129.621V123.621L529 118.621H530L535 126.621Z" fill="#093047"></path><path d="M508 115.621C505.333 120.288 501.667 122.621 497 122.621L496 120.621L506 113.621L508 115.621Z" fill="#71C6F5"></path><path d="M529 118.621L526 114.621H527L529 118.621Z" fill="#093047"></path><path d="M536 126.621V128.621L535 126.621H536ZM328 657.621L326 653.621L327 652.621L333 655.621L328 657.621Z" fill="#093047"></path><path d="M524 111.621L523 110.621L526 108.621H560L567 111.621L566 184.621L559 169.621V166.621L554 155.621L551 150.621L550 148.621L549 146.621L548 145.621V138.621C548 132.621 545.333 129.288 540 128.621L536 126.621H535L530 118.621L527 114.621L524 111.621Z" fill="#F7B723"></path><path d="M542 165.621H553L549 156.621C547 154.621 547.667 153.288 551 152.621L552 154.621L554 158.621L555 160.621L556 162.621L557 164.621L558 166.621L559 169.621C557 174.954 553.667 178.621 549 180.621L542 165.621Z" fill="#09334A"></path><path d="M485 560.621C483 555.288 479.667 554.288 475 557.621H472C466 555.621 461.667 556.954 459 561.621C457 564.288 454.333 564.954 451 563.621L444 562.621L439 561.621L440 557.621V554.621L487 532.621L494 528.621L495 527.621L499 525.621H501L503 524.621L513 519.621L521 518.621L535 511.621L541 504.621C545.667 497.954 547.667 490.621 547 482.621V240.621H562L566 245.621L565 250.621C559 250.621 561 255.621 560 258.621C559.333 262.621 561.333 264.954 566 265.621V272.621C564 277.621 566 281.621 562 285.621C560.667 288.288 562 290.288 566 291.621V299.621L563 314.621L566 317.621V365.621L563 368.621L566 369.621V460.621L563 463.621L566 465.621V474.621C561.333 477.288 561.333 479.288 566 480.621V513.621L565 519.621L562 512.621L557 520.621L559 523.621L548 529.621C544.667 528.288 543 529.288 543 532.621L530 538.621L526 535.621C520.667 538.954 516.667 538.621 514 534.621L504 539.621C495.333 542.954 491.333 548.954 492 557.621L491 558.621L489 559.621L487 560.621H485ZM25 524.621H23C19.6667 519.954 18 514.621 18 508.621V241.621L19 240.621H35V496.621L38 504.621L37 505.621C41 510.621 35 513.621 35 517.621L30 518.621V517.621L25 524.621Z" fill="#FEB618"></path><path d="M471 511.621L378 555.621L361 562.621C364.333 556.621 366 550.954 366 545.621L373 542.621L374 546.621C380 548.621 387 551.621 393 546.621C395.667 545.954 396.667 543.954 396 540.621C395.333 535.954 397.667 533.954 403 534.621C405.667 535.954 407.667 536.288 409 535.621C413 533.621 416 525.621 415 521.621L433 513.621L434 519.621C434.667 523.621 436.667 524.954 440 523.621L464 512.621L458 507.621L454 502.621L460 500.621L470 504.621C475 506.621 475 501.621 478 499.621L483 496.621C485.667 494.621 486.333 491.954 485 488.621L490 486.621H495C497.667 486.621 500 487.288 502 488.621C505.333 491.954 509 492.288 513 489.621H516L501 497.621L499 498.621H498L471 511.621ZM327 578.621L297 593.621C292.333 595.621 287.333 595.288 282 592.621C273.333 589.288 264.333 584.954 255 579.621L263 578.621C267 577.288 269 574.621 269 570.621L270 571.621H271L272 572.621H274L277 574.621H278V575.621L277 589.621L288 592.621C291 592.621 300 579.621 300 576.621L303 574.621H305C312 576.621 319 580.621 327 578.621Z" fill="#093047"></path><path d="M60 480.621L59 474.621V240.621L60 239.621L61 274.621L60 480.621Z" fill="#FECD51"></path><path d="M221 563.621C225 562.288 227 559.621 227 555.621L226 550.621L229 551.621L231 552.621L253 563.621L250 575.621L255 579.621L221 563.621Z" fill="#093047"></path><path d="M471 511.621L490 504.621L493 509.621C497.667 514.288 499.667 519.621 499 525.621L495 527.621L494 528.621L488 530.621C483.333 527.954 481 523.621 481 517.621C480.333 514.954 479 512.621 477 510.621L471 511.621Z" fill="#FECD51"></path><path d="M361 562.621L329 577.621C334.333 575.621 336.667 571.621 336 565.621V559.621L337 558.621L338 557.621L347 554.621L350 556.621C351.333 561.954 355 563.954 361 562.621ZM175 542.621L183 544.621C189 547.954 194 546.954 198 541.621L200 540.621L209 555.621L216 560.621L221 563.621L175 542.621ZM158 534.621C160 532.621 162.667 531.621 166 531.621C169.333 530.288 171 531.288 171 534.621L173 540.621L158 534.621ZM116 514.621H120L131 517.621L132 518.621L151 530.621L116 514.621Z" fill="#093047"></path><path d="M488 530.621L494 528.621L487 532.621L488 530.621Z" fill="#FDB51C"></path><path d="M329 577.621L328 578.621H327L329 577.621Z" fill="#093047"></path><path d="M507 250.621V470.621C507 476.621 505 479.954 501 480.621L491 484.621C497 475.621 496 465.621 496 456.621V254.621L507 250.621Z" fill="#3E94DB"></path><path d="M463 205.621L467 213.621V216.621L450 210.621H449V209.621L424 181.621C412.667 170.288 400 160.288 386 151.621L389 142.621L402 150.621L428 173.621L432 175.621L434 170.621L435 167.621L438 171.621L440 174.621L448 182.621L459 199.621L463 205.621Z" fill="#3A8DD7"></path><path d="M450 210.621L467 216.621V213.621L471 222.621L470 229.621L469 235.621C469.667 235.621 469.667 235.621 469 235.621C465 237.621 463 240.621 463 244.621C463 247.954 464.667 249.954 468 250.621L466 262.621L464 264.621L466 265.621L463 297.621H453L454 280.621L459 240.621L458 228.621H457V226.621H456V225.621L455 224.621L454 223.621L452 222.621L450 210.621Z" fill="#09334C"></path><path d="M470 229.621L471 222.621C473.667 225.288 477 226.954 481 227.621L503 228.621C505.667 228.621 507 229.954 507 232.621V250.621L496 254.621C496 245.621 495 245.621 488 245.621H469V235.621L470 234.621V229.621Z" fill="#3A8DD7"></path><path d="M566 272.621L567 229.621V228.621L569 233.621V514.621L567 520.621V289.621L566 284.621V272.621Z" fill="#093047"></path><path d="M522 234.621V227.621L566 229.621H555C546 229.621 546 229.621 547 238.621L546 239.621H523L522 234.621Z" fill="#F7B723"></path><path d="M481 205.621H511L519 206.621C522.333 206.621 524 208.621 524 212.621L485 213.621L481 205.621Z" fill="#1B89B3"></path><path d="M566 285.621L567 289.621V520.621L566 521.621L565 523.621L564 524.621L562 525.621L560 526.621L558 527.621L556 528.621L553 529.621L552 530.621H551L546 531.621L548 529.621L559 523.621L565 519.621L566 513.621V285.621Z" fill="#D7AD41"></path><path d="M522 234.621L523 240.621V475.621L522 481.621V234.621Z" fill="#F7C37A"></path><path d="M463 205.621L459 198.621C459 187.621 460 185.621 467 182.621L471 189.621L467 201.621L463 205.621ZM481 205.621L484 213.621C480 214.954 475.667 214.621 471 212.621C467 209.954 466.667 207.288 470 204.621L477 200.621L481 205.621Z" fill="#093047"></path><path d="M535 226.621H523C523.667 221.954 525.667 218.954 529 217.621H536L539 224.621L535 226.621Z" fill="#09334C"></path><path d="M372 617.621L374 616.621L376 615.621L387 611.621C386.333 614.288 384.333 615.954 381 616.621L373 621.621C369 624.954 364.667 625.954 360 624.621L361 622.621L363 621.621H364L365 620.621H366L367 619.621L370 618.621L372 617.621ZM435 587.621L433 590.621C427.667 592.621 423 595.621 419 599.621C417 600.954 413.667 601.288 409 600.621L412 597.621H413L420 593.621L422 592.621L424 591.621L426 590.621L428 589.621H429L430 588.621H431L432 587.621H435ZM507 470.621V467.621C512.333 466.954 515.333 469.288 516 474.621L521 481.621L520 486.621H519L518 487.621H517L514 475.621C513.333 471.621 511 469.954 507 470.621Z" fill="#093047"></path><path d="M459 574.621L465 570.621L484 563.621H483L476 567.621L474 568.621L472 569.621L470 570.621L468 571.621L466 572.621H465L461 574.621H459Z" fill="#D7AD41"></path><path d="M484 563.621L485 562.621L486 561.621L487 560.621L489 559.621L491 558.621H492L494 557.621L496 556.621L498 555.621H500C499.333 559.621 497.333 561.288 494 560.621L484 563.621ZM325 640.621L326 639.621L329 638.621H332L315 646.621L316 644.621L318 643.621H319L320 642.621H321L322 641.621H323L325 640.621Z" fill="#093047"></path><path d="M510 550.621H508L524 543.621L523 544.621L519 546.621L517 547.621L515 548.621L512 549.621L510 550.621Z" fill="#D7AD41"></path><path d="M298 655.621V654.621L299 653.621L300 652.621H301L304 650.621H305L306 649.621H309C307 653.621 303.333 655.621 298 655.621ZM501 567.621L506 563.621C506 568.288 504.333 569.621 501 567.621ZM546 531.621L551 530.621L541 535.621L545 532.621L546 531.621ZM523 544.621L524 543.621L525 542.621L526 541.621H527L528 540.621H531C529.667 543.954 527 545.288 523 544.621ZM401 604.621C399.667 607.954 397 609.288 393 608.621V607.621L394 606.621L396 605.621L401 604.621ZM354 627.621C352.667 630.954 350 632.288 346 631.621V630.621L354 627.621ZM451 579.621L443 583.621L444 581.621H445L446 580.621H447L448 579.621H451Z" fill="#093047"></path><path d="M558 224.621C557 228.621 555 225.621 553 225.621V224.621H558Z" fill="#09334C"></path><path d="M476 567.621L483 563.621C482.333 566.954 480 568.288 476 567.621ZM508 550.621H510L504 553.621V552.621L506 551.621L508 550.621Z" fill="#093047"></path><path d="M520 486.621L521 481.621H522L520 486.621Z" fill="#F7C37A"></path><path d="M455 577.621L451 579.621L452 577.621H455ZM504 553.621L500 555.621V554.621L502 553.621H504ZM338 635.621L334 637.621V636.621L338 635.621Z" fill="#093047"></path><path d="M566 228.621L564 227.621H567L566 228.621Z" fill="#636744"></path><path d="M457 576.621L455 577.621V576.621H457ZM311 648.621L309 649.621V648.621H311ZM393 608.621L391 609.621V608.621H393ZM391 609.621L389 610.621V609.621H391ZM441 584.621L439 585.621V584.621H441Z" fill="#093047"></path><path d="M346 630.621L344 631.621L342 632.621L340 633.621L338 634.621L334 636.621L332 637.621L329 638.621L331 636.621L361 622.621L360 624.621L358 625.621L356 626.621H354L346 630.621ZM389 609.621L387 610.621L394 606.621L393 607.621L391 608.621L389 609.621ZM407 601.621L405 602.621L403 603.621L401 604.621L397 605.621L412 597.621L409 600.621L407 601.621ZM315 646.621L313 647.621L311 648.621H309L316 644.621L315 646.621ZM439 585.621L437 586.621L435 587.621H433L439 584.621V585.621ZM441 584.621H439L444 581.621L443 583.621L441 584.621ZM457 576.621H455L459 574.621V575.621L457 576.621ZM452 577.621L451 579.621H449L452 577.621ZM487 560.621L486 561.621L485 560.621H487Z" fill="#D7AD41"></path><path d="M289 312.621V199.621C302.467 196.714 316.225 195.372 330 195.621L344 196.621L345 197.621L347 200.621V202.621L351 212.621L354 219.621L357 226.621L359 231.621L360 233.621L361 235.621L362 238.621L363 240.621L364 243.621L370 259.621L374 270.621L375 272.621L380 276.621L382 277.621L406 280.621L410 278.621L411 277.621L413 276.621C413 275.954 413 275.954 413 276.621L414 274.621L415 273.621L416 271.621L417 269.621L418 267.621L419 265.621L420 263.621L421 261.621L422 259.621L423 257.621L425 253.621L426 251.621L427 249.621L428 247.621L430 243.621L431 241.621L432 240.621L433 238.621L434 236.621L435 234.621L436 232.621L441 222.621L455 225.621L456 226.621L457 228.621L455 250.621L452 269.621L450 262.621L446 258.621L443 262.621L438 296.621L435 328.621C429.667 323.954 425.333 324.288 422 329.621L409 326.621L356 317.621C334 314.288 311.667 312.621 289 312.621Z" fill="#FDCA17"></path><path d="M191 277.621C201 272.954 207.667 265.621 211 255.621L233 197.621C234.333 194.954 236.333 193.621 239 193.621L289 194.621L287 199.621L266 202.621L250 203.621C248 203.621 246.667 204.954 246 207.621L230 249.621L222 270.621L216 277.621C206.667 284.288 196.333 285.954 185 282.621L194 278.621V277.621H191Z" fill="#F7ED7D"></path><path d="M153 323.621L147 317.621L146 310.621C144 301.621 145 300.621 153 297.621L168 292.621C171.333 291.288 173.333 292.621 174 296.621C176 304.621 162 322.621 153 323.621Z" fill="#FDF7BA"></path><path d="M287 199.621L290 194.621H344V196.621L330 195.621L310 196.621L289 199.621H287Z" fill="#C6ED68"></path><path d="M229 551.621L226 550.621L165 520.621C166.333 517.288 165 515.621 161 515.621V519.621L123 501.621L133 496.621C135 495.954 137 496.288 139 497.621C146.333 502.954 154.333 505.621 163 505.621L168 502.621L185 501.621C195 499.621 199.333 494.621 198 486.621L197 477.621C227.667 470.288 258.667 466.621 290 466.621L324 468.621C344 469.954 364 472.621 384 476.621C374.667 481.288 371 487.621 373 495.621L372 500.621C371.333 504.621 372.667 507.621 376 509.621C378 510.954 378.333 512.954 377 515.621C374.333 518.954 370.667 521.288 366 522.621L358 531.621L348 540.621C344 546.621 343 547.621 336 544.621C334.667 543.288 333.333 542.954 332 543.621C328 544.954 324.333 546.954 321 549.621C316.333 554.288 311 555.621 305 553.621L294 551.621L277 555.621L272 559.621L269 569.621L229 551.621Z" fill="#71C6F5"></path><path d="M458 228.621L459 240.621L454 280.621L453 297.621L463 298.621L460 339.621L454 404.621L450 455.621C450 464.954 448 473.288 444 480.621C440 483.954 435.667 485.954 431 486.621L403 487.621L395 480.621L396 469.621C396.667 462.954 393 458.954 385 457.621C357 450.954 328 447.288 298 446.621L238 449.621L207 455.621L193 458.621C187 459.954 184.333 463.621 185 469.621L181 484.621C174.333 487.954 167.333 489.288 160 488.621L144 485.621C137.333 480.954 134 473.954 134 464.621L143 457.621L145 461.621L146 469.621H147V470.621C153.667 476.621 161 478.288 169 475.621C171.667 474.954 172.667 472.954 172 469.621L170 454.621L173 450.621L186 446.621C213.333 439.954 241 435.954 269 434.621H306L317 435.621L356 439.621L399 446.621L403 447.621L405 448.621L407 450.621L408 451.621V452.621L407 469.621C406.333 473.621 408.333 475.954 413 476.621H428C433.333 475.288 436.333 471.621 437 465.621L438 458.621L444 390.621L446 346.621V345.621L447 341.621V338.621L453 279.621L458 228.621Z" fill="#09334A"></path><path d="M144 485.621L160 488.621L163 490.621L157 493.621L158 494.621L173 495.621C180.333 495.621 186 492.621 190 486.621V474.621C189.333 471.288 190.667 469.621 194 469.621L197 477.621L198 486.621C199.333 494.621 195 499.621 185 501.621L168 502.621C160 501.288 153.333 497.954 148 492.621L144 485.621Z" fill="#4AA5E5"></path><path d="M143 457.621L138 461.621L134 464.621L131 434.621L141 431.621L142 432.621L143 452.621V457.621ZM129 408.621C135.667 409.288 138.667 406.288 138 399.621L140 410.621L141 428.621C139.667 423.954 136 422.288 130 423.621L129 408.621Z" fill="#093047"></path><path d="M130 423.621C136 422.287 139.667 424.287 141 429.621V431.621L132 434.621L130 423.621Z" fill="#09334C"></path><path d="M158 225.621L154 218.621C152 213.954 148.667 210.621 144 208.621L152 197.621C169.642 175.125 192.309 157.076 218.184 144.92C244.059 132.764 272.422 126.839 301 127.621L310 130.621L271 160.621L293 169.621L282 171.621V173.621L310 181.621L306 183.621H254L233 182.621L225 185.621L223 186.621L217 198.621L200 242.621L194 256.621C192 262.621 187.667 264.954 181 263.621V261.621L162 227.621L158 225.621Z" fill="#69C2F4"></path><path d="M263 89.6209L260 90.6209H254L252 91.6209L207 104.621L205 100.621L190 67.6209L184 52.6209L190 49.6209L218 40.6209C241.612 35.1942 265.772 32.5097 290 32.6209V87.6209L263 89.6209ZM241 72.6209L212 83.6209L210 87.6209C211.333 88.9542 213 89.2875 215 88.6209L272 74.6209L278 70.6209L272 67.6209L241 72.6209Z" fill="#FDC618"></path><path d="M165 61.6208L175 67.6208L179 71.6208L187 78.6208L201 107.621H200L199 108.621C181 117.954 164 129.621 148 143.621L135 156.621C127.667 152.621 126 147.621 130 141.621L134 135.621L137 108.621L140 104.621V100.621C136 97.2875 135.667 93.6208 139 89.6208C141.667 86.2875 141 83.6208 137 81.6208L133 78.6208C135.667 75.9542 139 73.9542 143 72.6208L147 73.6208L156 64.6208L157 63.6208L165 61.6208Z" fill="#FC802A"></path><path d="M254 183.621H279L280 186.621C290 186.621 298 191.621 308 188.621L318 183.621L317 170.621L319 169.621C319 168.954 319 168.954 319 169.621L334 175.621L341 178.621C346 182.621 346 178.621 346 175.621L347 173.621L348 171.621L350 167.621L351 165.621L352 163.621L353 161.621L354 159.621L355 157.621L356 155.621L358 151.621L359 149.621L361 145.621L362 143.621L363 141.621L364 139.621L365 137.621L366 135.621L369 129.621L370 127.621L371 125.621L372 123.621L377 111.621L378 110.621V108.621H379V106.621H380L387 89.6208L388 88.6208L392 79.6208H391L369 95.6208L368 96.6208C364.667 96.6208 363 94.6208 363 90.6208L392 66.6208L394 65.6208L414 51.6208L415 52.6208L410 65.6208L409 67.6208L408 69.6208L390 106.621C388 109.954 389 112.621 393 114.621L397 116.621L399 117.621L401 118.621L402 119.621L406 121.621L407 122.621L409 123.621L410 124.621L412 125.621L413 126.621L414 127.621L415 128.621L412 131.621L403 139.621L381 126.621L373 145.621L365 159.621L360 161.621L356 174.621L358 175.621C355 182.621 352 188.621 358 194.621V197.621L357 202.621C357 207.954 354.667 209.621 350 207.621V206.621L349 204.621L348 202.621L347 200.621V199.621L344 194.621L339 192.621H326L330 182.621L328 181.621L316 189.621L310 192.621H264C259.333 191.954 256 188.954 254 183.621ZM321 183.621C321 182.954 321 182.954 321 183.621Z" fill="#09334C"></path><path d="M133 78.6208L137 81.6208C141 83.6208 141.667 86.2875 139 89.6208C135.667 93.6208 136 97.2875 140 100.621V104.621L137 108.621L134 135.621L130 141.621C126 147.621 127.667 152.621 135 156.621L133 159.621L85 120.621C99 105.288 115 91.2875 133 78.6208Z" fill="#FD7A2E"></path><path d="M310 130.621L301 127.621C269 126.288 238.333 133.621 209 149.621C182.867 163.723 160.559 183.972 144 208.621L131 209.621L146 187.621C163.916 165.867 186.335 148.255 211.713 135.998C237.09 123.741 264.822 117.13 293 116.621L317 118.621L321 121.621L310 130.621Z" fill="#3E94DB"></path><path d="M290 32.6208L285 31.6208C262.333 32.2875 240 35.2875 218 40.6208L190 49.6208L184 52.6208L190 67.6208L205 100.621L207 104.621L203 106.621L185 67.6208L180 55.6208C182 50.2875 181 45.6208 177 41.6208L185 37.6208C209 27.6208 234 21.2875 260 18.6208L284 16.6208C289.333 15.2875 291.333 17.6208 290 23.6208V32.6208Z" fill="#FDE63E"></path><path d="M334 175.621L319 170.621V169.621L303 161.621L304 160.621L327 167.621L331 166.621C333.667 164.621 335.667 161.954 337 158.621L350 140.621L364 119.621L374 103.621L384 93.6208L382 99.6208L379 107.621L378 109.621L377 112.621L367 132.621L359 147.621L357 153.621H356L353 160.621L349 169.621H348L347 172.621V174.621L346 176.621L341 179.621L334 175.621Z" fill="#FEB618"></path><path d="M384 92.6208L374 102.621L361 112.621L323 142.621L303 159.621V160.621L292 156.621L368 96.6208L369 95.6208L391 79.6208H392L388 88.6208L387 89.6208L384 92.6208Z" fill="#F7ED7D"></path><path d="M296 85.6209L297 77.6209C302.333 74.2875 307.333 74.6209 312 78.6209C315.333 81.2875 319 80.6209 323 76.6209L326 77.6209H328L357 82.6209L355 88.6209C353 91.2875 353.667 93.2875 357 94.6209C355 96.6209 352.667 97.2875 350 96.6209C335.333 91.9542 320 88.9542 304 87.6209L296 85.6209Z" fill="#67D550"></path><path d="M357 94.6208C353.667 93.2875 353 91.2875 355 88.6208L357 82.6208H358L359 81.6208L362 79.6208L365 78.6208L383 65.6208L398 56.6208L394 65.6208L392 66.6208L391 67.6208L357 94.6208Z" fill="#53D346"></path><path d="M311 181.621L282 173.621V171.621L294 169.621L313 177.621L311 181.621Z" fill="#3A8DD7"></path><path d="M290 32.6208V24.6208L292 23.6208V88.6208H273L290 87.6208V32.6208Z" fill="#636744"></path><path d="M185 67.6208L201 107.621L187 78.6208L183 67.6208H185Z" fill="#B93548"></path><path d="M296 85.6208L303 87.6208H296V85.6208Z" fill="#77D953"></path><path d="M158 226.621L162 227.621L181 261.621V263.621L176 259.621L158 226.621Z" fill="#449CE1"></path><path d="M225 185.621L233 182.621C234.333 191.288 229 196.621 217 198.621L224 186.621L225 185.621Z" fill="#09334C"></path><path d="M161 519.621V515.621C165 515.621 166.333 517.288 165 520.621L161 519.621Z" fill="#6AC3F5"></path><path d="M323 76.6208C319.667 80.6208 316 81.2875 312 78.6208C307.333 74.6208 302.333 74.2875 297 77.6208L298 59.6208L315 55.6208L334 51.6208L351 48.6208C356.333 47.9542 360 45.2875 362 40.6208L388 48.6208C386.667 51.2875 385 52.6208 383 52.6208L375 55.6208C365.667 61.6208 355.333 65.6208 344 67.6208C342 68.2875 341.333 69.6208 342 71.6208L313 67.6208L309 69.6208L311 73.6208L314 74.6208L323 76.6208Z" fill="#77D953"></path><path d="M362 40.6208C360 45.2875 356.333 47.9542 351 48.6208L334 51.6208L315 55.6208L298 59.6208L299 32.6208C320.333 32.6208 341.333 35.2875 362 40.6208Z" fill="#8ADA57"></path><path d="M342 71.6208C341.333 69.6208 342 68.2875 344 67.6208C355.333 65.6208 365.667 61.6208 375 55.6208L383 52.6208L388 48.6208L400 52.6208L398 56.6208L383 65.6208L365 78.6208L362 79.6208L347 72.6208L342 71.6208Z" fill="#67D550"></path><path d="M151 459.621L147 439.621L139 364.621V345.621L164 337.621L238 325.621L289 322.621L288 336.621V337.621L285 338.621L245 376.621L244 379.621V381.621L250 387.621L278 415.621L255 417.621L200 424.621C191.333 425.288 184 428.288 178 433.621C167.333 438.954 159.333 446.621 154 456.621L151 459.621ZM173 430.621L177 426.621L178 420.621L171 353.621C169.667 348.288 166.333 345.621 161 345.621C156.333 345.621 153.667 347.954 153 352.621L154 369.621V372.621L155 378.621V381.621L156 389.621V392.621L157 398.621V401.621L158 408.621V411.621L160 425.621L163 430.621L164 431.621L173 430.621Z" fill="#FDDD29"></path><path d="M446 341.621V345.621L445 346.621H443L412 337.621L405 335.621L344 326.621L289 322.621V312.621C311.667 312.621 334 314.288 356 317.621L409 326.621L422 329.621L446 335.621V341.621Z" fill="#FEA815"></path><path d="M139 345.621L138 348.621L137 345.621H139Z" fill="#FDE63E"></path><path d="M156 64.6208L147 73.6208L143 71.6208L156 64.6208Z" fill="#FD7A2E"></path><path d="M170 454.621L172 469.621C172.667 472.954 171.667 474.954 169 475.621C160.333 478.288 153 476.621 147 470.621V469.621L151 462.621L168 454.621H170Z" fill="#FDB51C"></path><path d="M168 454.621L151 459.621L154 456.621C159.333 446.621 167.333 438.954 178 433.621L179 437.621C171.667 441.621 165.667 447.288 161 454.621H168Z" fill="#FDC618"></path><path d="M185 67.6208H183L177 55.6208V54.6208L180 55.6208L185 67.6208Z" fill="#FC802A"></path><path d="M176 55.6208L182 67.6208L187 78.6208L179 71.6208L175 67.6208L176 55.6208Z" fill="#FCCB4E"></path><path d="M467 182.621C460 185.621 459 187.621 459 198.621C455 193.954 451.333 188.288 448 181.621C446 174.621 446 168.621 438 165.621C435.333 163.621 434.333 160.288 435 155.621L434 151.621C430 148.954 428 145.288 428 140.621H430L431 141.621L432 142.621L433 143.621L435 144.621L436 145.621L437 146.621L438 147.621L439 148.621L440 149.621L441 150.621L442 151.621L443 152.621L444 153.621L445 154.621L446 156.621L447 157.621L448 158.621L450 160.621L453 162.621L458 168.621L467 182.621Z" fill="#09334C"></path><path d="M458 168.621L453 161.621L461 154.621L498 126.621L506 121.621L505 126.621L486 145.621L458 168.621Z" fill="#1B89B3"></path><path d="M393 114.621C389 113.288 388 110.621 390 106.621L408 69.6209L409 67.6209L410 65.6209C418 60.6209 424 64.6209 430 68.6209L455 84.6209L480 106.621L496 120.621V122.621L462 150.621L461 151.621L453 155.621C453 150.288 452 145.621 450 141.621C441.333 127.621 430.667 114.954 418 103.621L405 95.6209L396 114.621H393Z" fill="#46C04F"></path><path d="M551 150.621L554 155.621H553L552 154.621L551 152.621V150.621Z" fill="#FECD51"></path><path d="M453 155.621L461 151.621V154.621L453 161.621L450 160.621V157.621L452 156.621L453 155.621Z" fill="#69C2F4"></path><path d="M554 155.621L559 166.621H558L557 164.621L556 162.621L555 160.621L554 158.621V155.621Z" fill="#FECD51"></path><path d="M520 486.621L522 481.621L523 475.621V240.621H547V482.621C547.667 490.621 545.667 497.954 541 504.621L523 513.621L516 511.621C510 510.954 506.667 507.954 506 502.621C505.333 499.288 503.667 497.621 501 497.621L516 489.621L517 488.621V487.621H519L520 486.621Z" fill="#FECD51"></path><path d="M501 497.621C503.667 497.621 505.333 499.288 506 502.621C506.667 507.954 510 510.954 516 511.621L523 513.621L513 519.621L503 524.621L501 525.621H499C499.667 519.621 497.667 514.288 493 509.621L490 504.621L499 498.621L501 497.621Z" fill="#FCCB4E"></path><path d="M502 553.621L501 554.621L499 555.621L497 556.621L495 557.621H493C492.333 548.954 496.333 542.954 505 539.621L515 534.621C518.333 538.621 522.333 538.954 527 535.621L531 538.621L529 540.621L527 541.621L525 542.621L509 550.621H508L507 551.621H506L505 552.621L502 553.621Z" fill="#FDB51C"></path><path d="M547 240.621V239.621C546 230.621 546 230.621 555 230.621H565L566 233.621V239.621L565 241.621H547" fill="#FEA815"></path><path d="M513 519.621L523 513.621L541 504.621L535 511.621L521 518.621L513 519.621ZM566 265.621C561.333 265.621 559.333 263.288 560 258.621C561 255.621 559 250.621 566 250.621V265.621ZM565 519.621L559 523.621L557 520.621L562 512.621L565 519.621Z" fill="#FDB51C"></path><path d="M566 265.621V228.621H567L566 271.621V265.621Z" fill="#D7AD41"></path><path d="M566 284.621V291.621C562 290.288 560.667 288.288 562 285.621C566 281.621 564 277.621 566 272.621V284.621ZM566 299.621V317.621L563 314.621L566 299.621Z" fill="#FDB51C"></path><path d="M529 540.621L530 538.621L543 532.621H545L541 535.621L539 536.621L537 537.621L535 538.621L533 539.621L531 540.621H529Z" fill="#D7AD41"></path><path d="M566 474.621V480.621C561.333 479.288 561.333 477.288 566 474.621ZM566 460.621V465.621L563 463.621L566 460.621ZM545 532.621H543C543 529.288 544.667 528.288 548 529.621L546 531.621L545 532.621ZM565 240.621L566 245.621L562 240.621H565ZM566 365.621V369.621L563 368.621L566 365.621Z" fill="#FDB51C"></path><path d="M492 557.621H494L492 558.621V557.621Z" fill="#D7AD41"></path><path d="M269 569.621L272 559.621L277 555.621L294 551.621L305 553.621C311 555.621 316.333 554.288 321 549.621C324.333 546.954 328 544.954 332 543.621C333.333 542.954 334.667 543.288 336 544.621C343 547.621 344 546.621 348 540.621L358 531.621L366 522.621C370.667 521.288 374.333 518.954 377 515.621C378.333 512.954 378 510.954 376 509.621C372.667 507.621 371.333 504.621 372 500.621L373 495.621C371 486.954 374.667 480.621 384 476.621L393 480.621L398 489.621C400 494.954 404 498.621 410 500.621L428 502.621C442.667 502.621 451.667 494.954 455 479.621L457 457.621L461 419.621L463 393.621L467 354.621L470 309.621L476 245.621H488C495 245.621 496 245.621 496 254.621V456.621C496 465.621 497 475.621 491 484.621L489 486.621L485 488.621L433 513.621L415 521.621L373 541.621L366 545.621L347 554.621L338 557.621L337 558.621L336 559.621L323 564.621C319 559.288 314.667 558.288 310 561.621L307 564.621L305 573.621V574.621H302C300.667 573.288 300.333 571.954 301 570.621C302.333 567.288 301.333 565.621 298 565.621L290 563.621C285 560.621 278 564.621 278 570.621V574.621L277 573.621L274 572.621H273V571.621H271V570.621H269V569.621Z" fill="#6AC3F5"></path><path d="M373 542.621L415 521.621C416 525.621 413 533.621 409 535.621C407.667 536.287 405.667 535.954 403 534.621C397.667 533.954 395.333 535.954 396 540.621C396.667 543.954 395.667 545.954 393 546.621C387 551.621 380 548.621 374 546.621L373 542.621ZM433 513.621L453 503.621L458 507.621L464 512.621L440 523.621C436.667 524.954 434.667 523.621 434 519.621L433 513.621ZM490 486.621L491 485.621L501 480.621C505 479.954 507 476.621 507 470.621C511 469.954 513.333 471.621 514 475.621L517 487.621L516 488.621L513 489.621C509 492.287 505.333 491.954 502 488.621C500 487.287 497.667 486.621 495 486.621H490ZM347 554.621L366 545.621C366 550.954 364.333 556.621 361 562.621C355 563.954 351.333 561.954 350 556.621L347 554.621ZM460 500.621L484 488.621C486 491.954 485.667 494.621 483 496.621L478 499.621C475 501.621 475 506.621 470 504.621L460 500.621Z" fill="#09334C"></path><path d="M323 564.621L336 559.621V565.621C336.667 571.621 334.333 575.621 329 577.621L327 578.621C319 580.621 312 576.621 305 574.621V573.621L323 564.621Z" fill="#09334C"></path><path d="M278 574.621V570.621C278 564.621 285 560.621 290 563.621L298 565.621C301.333 564.954 302.333 566.621 301 570.621C300.333 571.954 300.667 573.288 302 574.621L300 576.621C293.333 580.621 286.667 580.621 280 576.621L278 574.621Z" fill="#68C1F3"></path><path d="M278 575.621L280 576.621C286.667 580.621 293.333 580.621 300 576.621C300 579.621 291 592.621 288 592.621L277 589.621L278 575.621ZM269 569.621C269 573.621 267 576.288 263 577.621L255 578.621L250 574.621L253 562.621L269 569.621Z" fill="#09334C"></path><path d="M386 152.621C400 160.621 412.667 170.288 424 181.621L447 209.621C437.667 207.621 431.667 209.621 429 215.621L406 258.621C404 265.288 399.667 266.621 393 262.621L392 256.621L386 243.621L370 210.621L366 199.621C364.667 197.621 364.667 195.288 366 192.621L377 169.621L384 152.621H386Z" fill="#68C1F3"></path><path d="M392 263.621C399.333 266.954 404 265.288 406 258.621L429 215.621C431.667 209.621 437.667 207.621 447 209.621L449 210.621H450L451 222.621L445 220.621L441 222.621L436 232.621L435 234.621L434 236.621H433V238.621H432V240.621H431V241.621H430V243.621L428 247.621L427 249.621L426 251.621L425 253.621H424L423 257.621H422V259.621L421 261.621H420V263.621L419 265.621L418 267.621L417 269.621L416 271.621L415 273.621H414V274.621L413 275.621L412 276.621L411 277.621L410 278.621H409L380 276.621L375 272.621L374 270.621V269.621L370 259.621V258.621L364 243.621L363 240.621L362 238.621V237.621L361 235.621L360 233.621L359 231.621V230.621L357 226.621L354 219.621V218.621L351 212.621L350 207.621C354.667 209.621 357 207.954 357 202.621L358 197.621L365 208.621L389 259.621L392 263.621Z" fill="#09334A"></path><path d="M386 151.621L384 152.621L373 145.621L381 126.621L403 139.621L406 142.621L434 167.621V170.621L432 175.621L428 173.621L402 150.621L389 142.621L386 151.621Z" fill="#2E7CCE"></path><path d="M435 167.621L406 142.621L403 140.621L412 131.621L415 128.621H416L417 129.621L418 130.621L420 131.621L421 132.621L422 133.621L423 134.621L424 135.621L426 136.621L427 137.621L428 140.621C428 145.288 430 148.954 434 151.621L435 155.621C434.333 159.621 435.333 162.954 438 165.621C446 168.621 446 174.621 448 181.621L438 171.621L435 167.621Z" fill="#042D46"></path><path d="M449 210.621L447 209.621H449V210.621Z" fill="#09334C"></path><path d="M476 245.621L470 309.621L467 354.621L463 393.621L461 419.621L457 457.621L450 455.621L454 404.621L460 339.621L463 298.621L466 265.621V262.621L469 245.621H476Z" fill="#449CE1"></path><path d="M447 341.621L446 335.621V322.621L451 285.621V276.621L452 275.621V269.621L455 250.621L457 228.621H458L453 279.621L447 338.621V341.621Z" fill="#D7AD41"></path><path d="M469 245.621L468 250.621C464.667 249.288 463 247.288 463 244.621C463 240.621 465 237.621 469 235.621V245.621ZM466 262.621V265.621L464 264.621L466 262.621ZM452 222.621L454 223.621H453L452 222.621Z" fill="#09334A"></path><path d="M457 228.621L456 226.621H457V228.621Z" fill="#D7AD41"></path><path d="M566 229.621V232.621L565 229.621H566Z" fill="#FDB51C"></path><path d="M498 555.621L500 554.621V555.621H498ZM502 553.621L504 552.621V553.621H502Z" fill="#D7AD41"></path><path d="M452 269.621V275.621L451 276.621V285.621L450 286.621L446 322.621V335.621L422 329.621C425.333 324.288 429.667 323.954 435 328.621L438 296.621L443 262.621L446 258.621L450 262.621L452 269.621Z" fill="#FEB618"></path><path d="M380 276.621L409 278.621L406 280.621L382 277.621L380 276.621ZM453 223.621L455 224.621V225.621L441 222.621L445 220.621L451 222.621L453 223.621ZM350 207.621L351 211.621L347 202.621H348L349 204.621L350 207.621Z" fill="#D7AD41"></path><path d="M344 194.621L347 199.621L345 197.621L344 196.621V194.621Z" fill="#09334A"></path><path d="M393 480.621L384 476.621C364 472.621 344 469.954 324 468.621L290 466.621C258.667 466.621 227.667 470.288 197 477.621L195 469.621L216 463.621L268 457.621L330 458.621L352 460.621L396 469.621L395 480.621H393Z" fill="#3E94DB"></path><path d="M396 469.621L352 460.621L330 458.621L268 457.621L216 463.621L210 464.621L208 455.621L238 449.621L298 446.621C328 447.288 357 450.954 385 457.621C393 458.954 396.667 462.954 396 469.621Z" fill="#2874C8"></path><path d="M168 454.621H161C165.667 447.288 171.667 441.621 179 437.621C195 431.621 211 427.954 227 426.621L260 423.621L288 421.621V424.621C287.333 429.954 289.333 432.621 294 432.621L303 433.621H294L269 434.621C236.512 436.436 204.321 441.802 173 450.621L170 454.621H168Z" fill="#F9D727"></path><path d="M443 346.621H446L444 390.621L438 458.621L437 465.621L426 460.621L419 438.621C430 440.621 432 439.621 433 428.621L439 385.621L443 346.621Z" fill="#F7ED7D"></path><path d="M393 480.621H395L403 487.621L406 492.621L417 495.621C425 496.954 432.667 495.621 440 491.621C446 488.288 447.333 484.621 444 480.621C448 473.288 450 464.954 450 455.621L457 457.621L455 479.621C451.667 494.954 442.667 502.621 428 502.621L410 500.621C404 498.621 400 494.954 398 489.621L393 480.621Z" fill="#4AA5E5"></path><path d="M426 460.621L437 465.621C436.333 471.621 433.333 475.288 428 476.621H413C408.333 476.621 406.333 474.288 407 469.621L408 452.621H409L426 460.621Z" fill="#FEA815"></path><path d="M207 455.621L210 464.621L194 469.621C190.667 469.621 189.333 471.288 190 474.621V486.621L182 483.621L185 469.621C184.333 463.621 187 459.954 193 458.621L207 455.621Z" fill="#2E7CCE"></path><path d="M444 480.621C447.333 484.621 446 488.288 440 491.621C432.667 495.621 425 496.954 417 495.621L406 492.621L403 488.621L431 486.621C435.667 485.954 440 483.954 444 480.621ZM181 484.621L190 486.621C186 492.621 180.333 495.621 173 495.621L158 494.621L157 493.621L163 490.621L160 488.621C167.333 489.288 174.333 487.954 181 484.621Z" fill="#3A8DD7"></path><path d="M399 446.621L356 439.621L317 435.621L306 434.621V433.621L329 434.621L361 437.621L397 444.621L399 446.621Z" fill="#F9D727"></path><path d="M306 433.621H295L303 432.621L306 433.621Z" fill="#D7AD41"></path><path d="M408 451.621L407 450.621V449.621L408 451.621Z" fill="#FDCA17"></path><path d="M242 72.6208L272 67.6208L278 70.6208L272 74.6208L215 88.6208C213 89.2875 211.333 88.9542 210 87.6208L212 83.6208L242 72.6208Z" fill="#FDDD29"></path><path d="M373 145.621L384 152.621L366 192.621C364.667 195.288 364.667 197.621 366 199.621L370 210.621L365 208.621L359 197.621L358 194.621C352 188.621 355 182.621 358 175.621L365 159.621L373 145.621Z" fill="#3A8DD7"></path><path d="M365 159.621L358 175.621L356 174.621L360 161.621L365 159.621Z" fill="#09334A"></path><path d="M367 131.621L377 111.621L371 125.621L370 127.621L369 129.621L367 131.621ZM384 91.6208L387 89.6208L380 106.621L382 98.6208L384 92.6208V91.6208ZM349 168.621L353 159.621V161.621L352 163.621V164.621L351 165.621V166.621L349 168.621Z" fill="#D7AD41"></path><path d="M341 178.621L346 175.621C346 178.621 346 182.621 341 178.621Z" fill="#09334A"></path><path d="M353 159.621L356 153.621V156.621L355 157.621L353 159.621Z" fill="#D7AD41"></path><path d="M367 131.621L369 129.621L366 135.621L367 131.621ZM361 145.621L359 149.621V146.621H360L361 145.621ZM356 155.621V153.621L357 152.621L358 151.621L356 155.621Z" fill="#09334A"></path><path d="M406 121.621L402 119.621H403L406 121.621Z" fill="#093047"></path><path d="M393 114.621H396L397 116.621L393 114.621Z" fill="#093047"></path><path d="M416 128.621L415 127.621H416V128.621Z" fill="#09334A"></path><path d="M409 123.621L407 122.621H408L409 123.621Z" fill="#093047"></path><path d="M347 173.621V171.621H348L347 173.621Z" fill="#09334A"></path><path d="M304 159.621C326.021 139.064 349.408 120.021 374 102.621L364 118.621L350 139.621L337 157.621C335.667 160.954 333.667 163.621 331 165.621L327 166.621L304 159.621Z" fill="#F9D727"></path><path d="M366 135.621L365 137.621L364 139.621L363 141.621L362 143.621L361 145.621L360 146.621L367 131.621L366 135.621ZM359 149.621L358 151.621L357 152.621L359 146.621V149.621Z" fill="#D7AD41"></path><path d="M352 74.6208L361 79.6208L359 81.6208L358 82.6208H357L326 76.6208H323L314 74.6208L311 73.6208L309 69.6208L313 67.6208L342 71.6208L347 72.6208L349 73.6208H351L352 74.6208Z" fill="#C6ED68"></path><path d="M289 322.621L344 326.621L405 335.621L412 337.621L409 351.621L402 395.621L398 427.621L377 423.621C355 419.621 333.333 417.288 312 416.621H308C304.667 415.954 304 414.288 306 411.621L316 400.621L319 395.621L332 383.621L333 379.621L325 369.621L294 339.621L288 336.621L289 322.621Z" fill="#FECB16"></path><path d="M288 421.621L260 423.621L227 426.621C211 427.954 195 431.621 179 437.621L178 433.621C184.667 428.288 192 425.288 200 424.621L255 417.621L278 415.621C268 406.288 259 396.954 251 387.621L254 386.621C258.667 383.954 263.667 382.621 269 382.621C273.667 381.288 276.667 382.954 278 387.621L282 391.621L284 382.621L286 383.621V388.621L288 391.621V421.621Z" fill="#FEB618"></path><path d="M157 391.621L156 388.621L155 380.621V377.621L154 371.621V368.621C154.667 359.288 160 354.621 170 354.621L176 426.621L172 430.621H163L162 423.621L158 410.621V407.621L157 400.621V391.621Z" fill="#FDF9D7"></path><path d="M288 336.621L294 339.621L333 379.621H288V336.621Z" fill="#FDB51C"></path><path d="M288 337.621V379.621H244L245 376.621L285 338.621L288 337.621Z" fill="#FCCB4E"></path><path d="M177 426.621L170 354.621C160 354.621 154.667 359.288 154 368.621L153 352.621C153.667 347.954 156.333 345.621 161 345.621C166.333 345.621 169.667 348.288 171 353.621L178 420.621L177 426.621Z" fill="#FDF7BA"></path><path d="M244 379.621L288 380.621V391.621L286 388.621V383.621L284 382.621L282 391.621L278 387.621C276.667 382.954 273.667 381.288 269 382.621C263.667 382.621 258.667 383.954 254 386.621L250 387.621L244 381.621V379.621Z" fill="#FDB51C"></path><path d="M158 410.621L162 423.621L163 429.621L160 425.621L158 410.621Z" fill="#FDF7BA"></path><path d="M398 427.621L402 395.621L409 351.621L412 337.621L443 346.621L439 385.621L433 428.621C432 439.621 430 440.621 419 438.621C414 430.621 406 429.621 398 427.621Z" fill="#FEC315"></path><path d="M415 127.621L413 126.621L412 125.621L410 124.621L409 123.621L408 122.621L406 121.621L403 119.621L401 118.621L399 117.621L398 116.621L396 114.621L405 95.6208L418 103.621C430.667 114.954 441.333 127.621 450 141.621C452 145.621 453 150.288 453 155.621L452 156.621L450 158.621H448L447 157.621L446 156.621L445 154.621L444 153.621L443 152.621L442 151.621L441 150.621L440 149.621L439 148.621L438 147.621L437 146.621L436 145.621L435 144.621L433 143.621L432 142.621L431 141.621L430 140.621L427 137.621L426 136.621L424 135.621L423 134.621L422 133.621L421 132.621L420 131.621L418 130.621L417 129.621L416 128.621L415 127.621Z" fill="#53D346"></path><path d="M427 137.621L430 140.621H428L427 137.621ZM448 158.621H450V160.621L448 158.621Z" fill="#09334A"></path><path d="M323 564.621L305 573.621L307 564.621L310 561.621C314.667 558.954 319 559.954 323 564.621Z" fill="#68C1F3"></path><path d="M365 208.621L370 210.621L386 243.621L392 256.621L393 262.621C391 262.621 389.667 261.621 389 259.621L365 208.621Z" fill="#3E94DB"></path><path d="M306 433.621H303L294 432.621C289.333 433.288 287.333 430.621 288 424.621V421.621H291L332 424.621C351.333 425.954 370 428.954 388 433.621C397 435.621 397 435.621 397 444.621L361 437.621L329 434.621L306 433.621Z" fill="#FDCA17"></path><path d="M397 444.621C397 435.621 397 435.621 388 433.621C370 428.954 351.333 425.954 332 424.621L292 421.621L319 395.621L316 400.621L306 411.621C304 414.288 304.667 415.954 308 416.621H312C334 417.288 355.667 419.621 377 423.621L398 427.621C406 429.621 414 430.621 419 438.621L426 460.621L408 451.621L407 449.621L405 448.621L403 447.621L399 446.621L397 444.621Z" fill="#FEB618"></path><path d="M319 395.621L291 421.621H288V380.621L333 379.621L332 383.621L319 395.621Z" fill="#FEA815"></path></svg>